<svg width="136" height="147" viewBox="0 0 136 147" fill="none" xmlns="http://www.w3.org/2000/svg">
<path d="M15 127C15 124.239 17.2386 122 20 122H33C35.7614 122 38 124.239 38 127V142C38 144.761 35.7614 147 33 147H20C17.2386 147 15 144.761 15 142V127Z" fill="#455A64"/>
<path d="M98 127C98 124.239 100.239 122 103 122H116C118.761 122 121 124.239 121 127V142C121 144.761 118.761 147 116 147H103C100.239 147 98 144.761 98 142V127Z" fill="#455A64"/>
<path d="M0 56C0 53.7909 1.79086 52 4 52H10V75H4C1.79086 75 0 73.2091 0 71V56Z" fill="#FFC107"/>
<path d="M0 56C0 53.7909 1.79086 52 4 52H10V75H4C1.79086 75 0 73.2091 0 71V56Z" fill="#FFC107"/>
<path d="M0 56C0 53.7909 1.79086 52 4 52H10V75H4C1.79086 75 0 73.2091 0 71V56Z" fill="#FFC107"/>
<path d="M136 71C136 73.2091 134.209 75 132 75H126V52H132C134.209 52 136 53.7909 136 56V71Z" fill="#FFC107"/>
<path d="M136 71C136 73.2091 134.209 75 132 75H126V52H132C134.209 52 136 53.7909 136 56V71Z" fill="#FFC107"/>
<path d="M136 71C136 73.2091 134.209 75 132 75H126V52H132C134.209 52 136 53.7909 136 56V71Z" fill="#FFC107"/>
<path d="M15 12C15 9.23858 17.2386 7 20 7H115C117.761 7 120 9.23858 120 12V77C120 79.7614 117.761 82 115 82H20C17.2386 82 15 79.7614 15 77V12Z" fill="#9FA8DA"/>
<path d="M27 53C27 51.3431 28.3431 50 30 50H54C55.6569 50 57 51.3431 57 53V83H27V53Z" fill="#7986CB"/>
<path d="M79 52C79 50.3431 80.3431 49 82 49H106C107.657 49 109 50.3431 109 52V84H79V52Z" fill="#7986CB"/>
<path d="M113 78.5C113 87.0604 104.493 94 94 94C83.5066 94 75 87.0604 75 78.5C75 69.9396 83.5066 63 94 63C104.493 63 113 69.9396 113 78.5ZM84.5 78.5C84.5 82.7802 88.7533 86.25 94 86.25C99.2467 86.25 103.5 82.7802 103.5 78.5C103.5 74.2198 99.2467 70.75 94 70.75C88.7533 70.75 84.5 74.2198 84.5 78.5Z" fill="#3C4BAC"/>
<path fill-rule="evenodd" clip-rule="evenodd" d="M15 0C11.134 0 8 3.134 8 7V124C8 127.866 11.134 131 15 131H121C124.866 131 128 127.866 128 124V7C128 3.13401 124.866 0 121 0H15ZM20 7C17.2386 7 15 9.23858 15 12V77C15 79.7614 17.2386 82 20 82H115C117.761 82 120 79.7614 120 77V12C120 9.23858 117.761 7 115 7H20Z" fill="#FFC107"/>
<path d="M38 106.5C38 111.747 33.7467 116 28.5 116C23.2533 116 19 111.747 19 106.5C19 101.253 23.2533 97 28.5 97C33.7467 97 38 101.253 38 106.5Z" fill="#FFF8E1"/>
<path d="M117 106.5C117 111.747 112.747 116 107.5 116C102.253 116 98 111.747 98 106.5C98 101.253 102.253 97 107.5 97C112.747 97 117 101.253 117 106.5Z" fill="#FFF8E1"/>
<path d="M15 12C15 9.23858 17.2386 7 20 7H115C117.761 7 120 9.23858 120 12V30H15V12Z" fill="#263238"/>
<path d="M23 15H65V23H23V15Z" fill="#64DD17"/>
<path d="M23 15H65V23H23V15Z" fill="#64DD17"/>
<path d="M72 15H87V23H72V15Z" fill="#64DD17"/>
<path d="M72 15H87V23H72V15Z" fill="#64DD17"/>
</svg>
