<svg width="124" height="116" viewBox="0 0 124 116" fill="none" xmlns="http://www.w3.org/2000/svg">
<path d="M52.4997 91C52.4997 95.6244 50.9605 100.158 48.0533 104.097C45.1461 108.036 40.9848 111.226 36.0321 113.312C31.0794 115.398 25.5295 116.298 19.9995 115.913C14.4695 115.528 6.46809 114.743 2 112L5.5 110.5L8 109L12.5 105.5L17.5 99L19.5 92L52.4997 91Z" fill="#40A5F5"/>
<ellipse cx="62" cy="53.5" rx="62" ry="53.5" fill="#40A5F5"/>
<circle cx="89" cy="54" r="8" fill="white"/>
<circle cx="89" cy="54" r="8" fill="white"/>
<circle cx="89" cy="54" r="8" fill="white"/>
<circle cx="89" cy="54" r="8" fill="white"/>
<circle cx="89" cy="54" r="8" fill="white"/>
<circle cx="89" cy="54" r="8" fill="white"/>
<circle cx="89" cy="54" r="8" fill="white"/>
<circle cx="35" cy="54" r="8" fill="white"/>
<circle cx="35" cy="54" r="8" fill="white"/>
<circle cx="35" cy="54" r="8" fill="white"/>
<circle cx="35" cy="54" r="8" fill="white"/>
<circle cx="35" cy="54" r="8" fill="white"/>
<circle cx="35" cy="54" r="8" fill="white"/>
<circle cx="35" cy="54" r="8" fill="white"/>
<circle cx="62" cy="54" r="8" fill="white"/>
<circle cx="62" cy="54" r="8" fill="white"/>
<circle cx="62" cy="54" r="8" fill="white"/>
<circle cx="62" cy="54" r="8" fill="white"/>
<circle cx="62" cy="54" r="8" fill="white"/>
<circle cx="62" cy="54" r="8" fill="white"/>
<circle cx="62" cy="54" r="8" fill="white"/>
</svg>
