<svg width="74" height="74" viewBox="0 0 74 74" fill="none" xmlns="http://www.w3.org/2000/svg">
<path d="M69.0071 36.9789C71.5469 33.1771 72.8962 28.7123 72.8843 24.1487C72.8843 11.5782 62.907 1.38813 50.5995 1.38813C45.7671 1.38791 41.0716 2.9837 37.251 5.92469C33.2367 2.32652 28.0234 0.334501 22.6179 0.333374C10.3104 0.333374 0.333092 10.5234 0.333092 23.0939C0.319403 28.1436 1.97347 33.0582 5.04138 37.0833C2.50556 40.8842 1.15878 45.3463 1.17087 49.9069C1.17087 62.4774 11.1482 72.6675 23.4557 72.6675C28.2906 72.6685 32.9888 71.0719 36.8109 68.1287C40.817 71.6933 46.0046 73.665 51.3815 73.6667C63.6889 73.6667 73.6663 63.4767 73.6663 50.9062C73.6803 45.8834 72.0444 40.9933 69.0071 36.9789Z" fill="#D8D8D8"/>
<path d="M44.9585 26.7578C46.4083 26.7578 47.5836 25.5897 47.5836 24.1487C47.5836 22.7077 46.4083 21.5396 44.9585 21.5396C43.5088 21.5396 42.3335 22.7077 42.3335 24.1487C42.3335 25.5897 43.5088 26.7578 44.9585 26.7578Z" fill="#9F9F9F"/>
<path d="M29.7666 26.7578C31.2164 26.7578 32.3917 25.5897 32.3917 24.1487C32.3917 22.7077 31.2164 21.5396 29.7666 21.5396C28.3169 21.5396 27.1416 22.7077 27.1416 24.1487C27.1416 25.5897 28.3169 26.7578 29.7666 26.7578Z" fill="#9F9F9F"/>
<path d="M42.2779 29.2559C41.0407 29.2559 39.8312 29.6205 38.8025 30.3037C37.7739 30.9869 36.9721 31.9579 36.4986 33.094C36.0252 34.2301 35.9013 35.4803 36.1427 36.6863C36.384 37.8924 36.9798 39.0003 37.8546 39.8698C38.7295 40.7393 39.8441 41.3315 41.0575 41.5714C42.2709 41.8113 43.5287 41.6882 44.6717 41.2176C45.8147 40.747 46.7917 39.9501 47.479 38.9276C48.1664 37.9052 48.5333 36.7031 48.5333 35.4734C48.5333 33.8244 47.8742 32.2429 46.7011 31.0769C45.528 29.9109 43.9369 29.2559 42.2779 29.2559ZM42.3337 38.138C41.8145 38.138 41.307 37.985 40.8753 37.6983C40.4436 37.4116 40.1072 37.0041 39.9085 36.5274C39.7098 36.0506 39.6578 35.526 39.7591 35.0199C39.8604 34.5137 40.1104 34.0488 40.4775 33.6839C40.8447 33.3191 41.3124 33.0706 41.8216 32.9699C42.3308 32.8692 42.8586 32.9209 43.3383 33.1184C43.8179 33.3158 44.2279 33.6503 44.5163 34.0793C44.8048 34.5084 44.9587 35.0128 44.9587 35.5289C44.9587 36.2209 44.6822 36.8845 44.1899 37.3738C43.6976 37.8631 43.0299 38.138 42.3337 38.138Z" fill="#F3F3F3"/>
</svg>
