<svg width="59" height="44" viewBox="0 0 59 44" fill="none" xmlns="http://www.w3.org/2000/svg">
<path d="M12.0661 3.85838C13.1503 0.879653 16.4439 -0.656196 19.4227 0.427973C22.4014 1.51214 23.9372 4.80577 22.8531 7.7845L11.1346 39.9806C10.0505 42.9593 6.75684 44.4952 3.77811 43.411C0.799379 42.3269 -0.736466 39.0332 0.347703 36.0545L12.0661 3.85838Z" fill="#DDDDDD"/>
<path d="M12.1052 7.82992C11.0211 4.85119 12.5569 1.55756 15.5356 0.473388C18.5144 -0.610782 21.808 0.925064 22.8922 3.90379L34.6106 36.0999C35.6948 39.0786 34.1589 42.3723 31.1802 43.4564C28.2015 44.5406 24.9078 43.0048 23.8237 40.026L12.1052 7.82992Z" fill="#8D8F91"/>
<path d="M23.2863 5.82724C23.2863 9.04553 20.6773 11.6545 17.459 11.6545C14.2407 11.6545 11.6318 9.04553 11.6318 5.82724C11.6318 2.60894 14.2407 0 17.459 0C20.6773 0 23.2863 2.60894 23.2863 5.82724Z" fill="white"/>
<path d="M35.6048 7.87533C34.5206 4.8966 36.0565 1.60297 39.0352 0.518798C42.0139 -0.565371 45.3076 0.970474 46.3917 3.9492L58.1102 36.1453C59.1943 39.124 57.6585 42.4177 54.6798 43.5019C51.701 44.586 48.4074 43.0502 47.3232 40.0714L35.6048 7.87533Z" fill="#8D8F91"/>
<path d="M35.5657 3.90379C36.6499 0.925064 39.9435 -0.610786 42.9222 0.473383C45.901 1.55755 47.4368 4.85118 46.3526 7.82991L34.6342 40.026C33.55 43.0048 30.2564 44.5406 27.2777 43.4564C24.299 42.3723 22.7631 39.0786 23.8473 36.0999L35.5657 3.90379Z" fill="#DDDDDD"/>
<path d="M35.0284 38.0742C35.0284 41.2925 32.4194 43.9014 29.2011 43.9014C25.9828 43.9014 23.3739 41.2925 23.3739 38.0742C23.3739 34.8559 25.9828 32.247 29.2011 32.247C32.4194 32.247 35.0284 34.8559 35.0284 38.0742Z" fill="white"/>
</svg>
