<svg width="88" height="124" viewBox="0 0 88 124" fill="none" xmlns="http://www.w3.org/2000/svg">
<path d="M10.7014 54.877C10.7682 52.1643 12.9864 50 15.6999 50H18.1652C20.8469 50 23.0511 52.1156 23.161 54.7951L25.8292 119.836C25.9224 122.108 24.106 124 21.8325 124H13.0997C10.852 124 9.04557 122.149 9.10088 119.902L10.7014 54.877Z" fill="#5A6AC0"/>
<path d="M35 32.3125C35 47.2242 25.5065 52 17.2222 52C8.93795 52 0 47.2242 0 32.3125C0 17.4008 8.93795 0 17.2222 0C25.5065 0 35 17.4008 35 32.3125Z" fill="#40A5F5"/>
<path d="M68 3.5C68 2.11929 69.1193 1 70.5 1C71.8807 1 73 2.11929 73 3.5V74.5C73 75.8807 71.8807 77 70.5 77C69.1193 77 68 75.8807 68 74.5V3.5Z" fill="#40A5F5"/>
<path d="M81 3.5C81 2.11929 82.1193 1 83.5 1C84.8807 1 86 2.11929 86 3.5V74.5C86 75.8807 84.8807 77 83.5 77C82.1193 77 81 75.8807 81 74.5V3.5Z" fill="#40A5F5"/>
<path d="M66.9086 70.2322C66.9395 68.4382 68.4027 67 70.197 67V67C71.9767 67 73.4335 68.4156 73.4845 70.1945L74.8819 118.885C74.9466 121.138 73.1377 123 70.8836 123H70.0695C67.8334 123 66.0316 121.167 66.0701 118.931L66.9086 70.2322Z" fill="#5A6AC0"/>
<path d="M79.9086 70.2322C79.9395 68.4382 81.4027 67 83.197 67V67C84.9767 67 86.4335 68.4156 86.4845 70.1945L87.8819 118.885C87.9466 121.138 86.1377 123 83.8836 123H83.0695C80.8334 123 79.0316 121.167 79.0701 118.931L79.9086 70.2322Z" fill="#5A6AC0"/>
</svg>
